; NON-PLATED HOLES START AT T1
; THROUGH (PLATED) HOLES START AT T100
M48
INCH
T1C0.064944
T2C0.064972
T3C0.118110
T100C0.051083
T101C0.051056
T102C0.027559
T103C0.035000
T104C0.015748
T105C0.036000
T106C0.038000
T107C0.039370
%
T1
X032710Y010782
X032710Y009783
X032710Y011783
X032710Y012782
T2
X018811Y010940
X018811Y008940
X018811Y012940
X018811Y009940
X018811Y011940
X018811Y013940
T3
X005314Y004896
X024147Y020020
T100
X018811Y010940
X018811Y008940
X018811Y012940
X018811Y009940
X018811Y011940
X018811Y013940
T101
X032710Y010782
X032710Y009783
X032710Y011783
X032710Y012782
T102
X001121Y002117
X001121Y001330
T103
X006451Y018991
X007451Y018991
X005451Y018991
T104
X000839Y009382
X013320Y006502
X009719Y009622
T105
X013668Y008040
X015668Y014040
X010668Y008040
X006668Y008040
X002668Y008040
X009668Y008040
X011668Y008040
X004668Y008040
X014668Y008040
X003668Y014040
X012668Y008040
X003668Y008040
X007668Y008040
X001668Y008040
X015625Y011043
X016624Y011043
X010668Y014040
X006668Y014040
X007668Y014040
X016624Y010042
X012668Y014040
X014668Y014040
X015668Y008040
X001668Y014040
X005668Y014040
X011668Y014040
X015625Y012044
X008668Y014040
X013668Y014040
X002668Y014040
X004668Y014040
X005668Y008040
X016624Y012044
X015625Y010042
X008668Y008040
X009668Y014040
T106
X001620Y021623
X016264Y015533
X018264Y015533
X013264Y015533
X029670Y021603
X023579Y006196
X032669Y006196
X023579Y000678
X023579Y001681
X032670Y021603
X030670Y021603
X023579Y005192
X003620Y021623
X031670Y021603
X017264Y015533
X032669Y000678
X019264Y015533
X014264Y015533
X002620Y021623
X015264Y015533
X000620Y021623
T107
X012068Y005007
X010169Y004993
X019086Y002858
X019086Y005958
T00
M30
