; NON-PLATED HOLES START AT T1
; THROUGH (PLATED) HOLES START AT T100
M48
INCH
T100C0.035000
T101C0.038000
%
T100
X025626Y002753
X007950Y001068
X018035Y002811
X015476Y002811
X010509Y001068
X018035Y001039
X023067Y002753
X015476Y001039
X010509Y002839
X025626Y000981
X007950Y002839
X023067Y000981
T101
X002848Y003990
X030637Y000699
X032637Y000699
X002537Y000592
X000537Y000592
X001537Y000592
X003537Y000592
X002848Y002990
X029637Y000699
X031637Y000699
T00
M30
