G04 MADE WITH FRITZING*
G04 WWW.FRITZING.ORG*
G04 DOUBLE SIDED*
G04 HOLES PLATED*
G04 CONTOUR ON CENTER OF CONTOUR VECTOR*
%ASAXBY*%
%FSLAX23Y23*%
%MOIN*%
%OFA0B0*%
%SFA1.0B1.0*%
%ADD10C,0.075000*%
%ADD11C,0.078000*%
%ADD12R,0.078000X0.078000*%
%ADD13C,0.024000*%
%LNCOPPER1*%
G90*
G70*
G54D10*
X123Y816D03*
G54D11*
X354Y59D03*
X254Y59D03*
X154Y59D03*
X54Y59D03*
X3264Y70D03*
X3164Y70D03*
X3064Y70D03*
X2964Y70D03*
X285Y399D03*
X285Y299D03*
X285Y399D03*
X285Y299D03*
G54D10*
X2563Y98D03*
X2307Y98D03*
X2563Y275D03*
X2307Y275D03*
X1804Y104D03*
X1548Y104D03*
X1804Y281D03*
X1548Y281D03*
X1051Y107D03*
X795Y107D03*
X1051Y284D03*
X795Y284D03*
G54D12*
X285Y399D03*
X285Y399D03*
G54D13*
X2934Y72D02*
X2591Y96D01*
D02*
X1080Y107D02*
X1519Y104D01*
D02*
X3042Y91D02*
X2892Y242D01*
D02*
X2892Y242D02*
X2591Y272D01*
D02*
X3142Y91D02*
X2916Y314D01*
D02*
X2916Y314D02*
X2652Y378D01*
D02*
X2653Y378D02*
X2480Y398D01*
D02*
X2480Y398D02*
X2261Y419D01*
D02*
X2261Y419D02*
X1809Y408D01*
D02*
X1809Y408D02*
X1805Y310D01*
G36*
X40Y896D02*
X40Y448D01*
X334Y448D01*
X334Y440D01*
X2282Y440D01*
X2282Y438D01*
X2302Y438D01*
X2302Y436D01*
X2324Y436D01*
X2324Y434D01*
X2346Y434D01*
X2346Y432D01*
X2368Y432D01*
X2368Y430D01*
X2388Y430D01*
X2388Y428D01*
X2410Y428D01*
X2410Y426D01*
X2432Y426D01*
X2432Y424D01*
X2454Y424D01*
X2454Y422D01*
X2474Y422D01*
X2474Y420D01*
X2494Y420D01*
X2494Y418D01*
X2510Y418D01*
X2510Y416D01*
X2528Y416D01*
X2528Y414D01*
X2544Y414D01*
X2544Y412D01*
X2562Y412D01*
X2562Y410D01*
X2578Y410D01*
X2578Y408D01*
X2596Y408D01*
X2596Y406D01*
X2612Y406D01*
X2612Y404D01*
X2630Y404D01*
X2630Y402D01*
X2646Y402D01*
X2646Y400D01*
X2660Y400D01*
X2660Y398D01*
X2668Y398D01*
X2668Y396D01*
X2676Y396D01*
X2676Y394D01*
X2684Y394D01*
X2684Y392D01*
X2692Y392D01*
X2692Y390D01*
X2702Y390D01*
X2702Y388D01*
X2710Y388D01*
X2710Y386D01*
X2718Y386D01*
X2718Y384D01*
X2726Y384D01*
X2726Y382D01*
X2734Y382D01*
X2734Y380D01*
X2742Y380D01*
X2742Y378D01*
X2750Y378D01*
X2750Y376D01*
X2760Y376D01*
X2760Y374D01*
X2768Y374D01*
X2768Y372D01*
X2776Y372D01*
X2776Y370D01*
X2784Y370D01*
X2784Y368D01*
X2792Y368D01*
X2792Y366D01*
X2800Y366D01*
X2800Y364D01*
X2808Y364D01*
X2808Y362D01*
X2816Y362D01*
X2816Y360D01*
X2826Y360D01*
X2826Y358D01*
X2834Y358D01*
X2834Y356D01*
X2842Y356D01*
X2842Y354D01*
X2850Y354D01*
X2850Y352D01*
X2858Y352D01*
X2858Y350D01*
X2866Y350D01*
X2866Y348D01*
X2874Y348D01*
X2874Y346D01*
X2884Y346D01*
X2884Y344D01*
X2892Y344D01*
X2892Y342D01*
X2900Y342D01*
X2900Y340D01*
X2908Y340D01*
X2908Y338D01*
X2916Y338D01*
X2916Y336D01*
X2924Y336D01*
X2924Y334D01*
X2928Y334D01*
X2928Y332D01*
X2930Y332D01*
X2930Y330D01*
X2932Y330D01*
X2932Y328D01*
X2934Y328D01*
X2934Y326D01*
X2936Y326D01*
X2936Y324D01*
X2938Y324D01*
X2938Y322D01*
X2940Y322D01*
X2940Y320D01*
X2942Y320D01*
X2942Y318D01*
X2944Y318D01*
X2944Y316D01*
X2946Y316D01*
X2946Y314D01*
X2948Y314D01*
X2948Y312D01*
X2950Y312D01*
X2950Y310D01*
X2952Y310D01*
X2952Y308D01*
X2954Y308D01*
X2954Y306D01*
X2956Y306D01*
X2956Y304D01*
X2958Y304D01*
X2958Y302D01*
X2960Y302D01*
X2960Y300D01*
X2962Y300D01*
X2962Y298D01*
X2966Y298D01*
X2966Y296D01*
X2968Y296D01*
X2968Y294D01*
X2970Y294D01*
X2970Y292D01*
X2972Y292D01*
X2972Y290D01*
X2974Y290D01*
X2974Y288D01*
X2976Y288D01*
X2976Y286D01*
X2978Y286D01*
X2978Y284D01*
X2980Y284D01*
X2980Y282D01*
X2982Y282D01*
X2982Y280D01*
X2984Y280D01*
X2984Y278D01*
X2986Y278D01*
X2986Y276D01*
X2988Y276D01*
X2988Y274D01*
X2990Y274D01*
X2990Y272D01*
X2992Y272D01*
X2992Y270D01*
X2994Y270D01*
X2994Y268D01*
X2996Y268D01*
X2996Y266D01*
X2998Y266D01*
X2998Y264D01*
X3000Y264D01*
X3000Y262D01*
X3002Y262D01*
X3002Y260D01*
X3004Y260D01*
X3004Y258D01*
X3006Y258D01*
X3006Y256D01*
X3008Y256D01*
X3008Y254D01*
X3010Y254D01*
X3010Y252D01*
X3012Y252D01*
X3012Y250D01*
X3014Y250D01*
X3014Y248D01*
X3016Y248D01*
X3016Y246D01*
X3018Y246D01*
X3018Y244D01*
X3020Y244D01*
X3020Y242D01*
X3022Y242D01*
X3022Y240D01*
X3024Y240D01*
X3024Y238D01*
X3026Y238D01*
X3026Y236D01*
X3028Y236D01*
X3028Y234D01*
X3030Y234D01*
X3030Y232D01*
X3032Y232D01*
X3032Y230D01*
X3034Y230D01*
X3034Y228D01*
X3036Y228D01*
X3036Y226D01*
X3038Y226D01*
X3038Y224D01*
X3040Y224D01*
X3040Y222D01*
X3042Y222D01*
X3042Y220D01*
X3044Y220D01*
X3044Y218D01*
X3046Y218D01*
X3046Y216D01*
X3048Y216D01*
X3048Y214D01*
X3050Y214D01*
X3050Y212D01*
X3052Y212D01*
X3052Y210D01*
X3054Y210D01*
X3054Y208D01*
X3056Y208D01*
X3056Y206D01*
X3058Y206D01*
X3058Y204D01*
X3060Y204D01*
X3060Y202D01*
X3062Y202D01*
X3062Y200D01*
X3064Y200D01*
X3064Y198D01*
X3066Y198D01*
X3066Y196D01*
X3068Y196D01*
X3068Y194D01*
X3070Y194D01*
X3070Y192D01*
X3072Y192D01*
X3072Y190D01*
X3074Y190D01*
X3074Y188D01*
X3076Y188D01*
X3076Y186D01*
X3078Y186D01*
X3078Y184D01*
X3080Y184D01*
X3080Y182D01*
X3082Y182D01*
X3082Y180D01*
X3084Y180D01*
X3084Y178D01*
X3086Y178D01*
X3086Y176D01*
X3088Y176D01*
X3088Y174D01*
X3090Y174D01*
X3090Y172D01*
X3092Y172D01*
X3092Y170D01*
X3094Y170D01*
X3094Y168D01*
X3096Y168D01*
X3096Y166D01*
X3098Y166D01*
X3098Y164D01*
X3100Y164D01*
X3100Y162D01*
X3102Y162D01*
X3102Y160D01*
X3104Y160D01*
X3104Y158D01*
X3108Y158D01*
X3108Y156D01*
X3110Y156D01*
X3110Y154D01*
X3112Y154D01*
X3112Y152D01*
X3114Y152D01*
X3114Y150D01*
X3116Y150D01*
X3116Y148D01*
X3118Y148D01*
X3118Y146D01*
X3120Y146D01*
X3120Y144D01*
X3122Y144D01*
X3122Y142D01*
X3124Y142D01*
X3124Y140D01*
X3126Y140D01*
X3126Y138D01*
X3128Y138D01*
X3128Y136D01*
X3130Y136D01*
X3130Y134D01*
X3132Y134D01*
X3132Y132D01*
X3134Y132D01*
X3134Y130D01*
X3136Y130D01*
X3136Y128D01*
X3138Y128D01*
X3138Y126D01*
X3140Y126D01*
X3140Y124D01*
X3142Y124D01*
X3142Y122D01*
X3144Y122D01*
X3144Y120D01*
X3266Y120D01*
X3266Y118D01*
X3292Y118D01*
X3292Y896D01*
X40Y896D01*
G37*
D02*
G36*
X40Y448D02*
X40Y250D01*
X276Y250D01*
X276Y252D01*
X270Y252D01*
X270Y254D01*
X264Y254D01*
X264Y256D01*
X260Y256D01*
X260Y258D01*
X258Y258D01*
X258Y260D01*
X254Y260D01*
X254Y262D01*
X252Y262D01*
X252Y264D01*
X250Y264D01*
X250Y266D01*
X248Y266D01*
X248Y268D01*
X246Y268D01*
X246Y272D01*
X244Y272D01*
X244Y274D01*
X242Y274D01*
X242Y278D01*
X240Y278D01*
X240Y282D01*
X238Y282D01*
X238Y290D01*
X236Y290D01*
X236Y310D01*
X238Y310D01*
X238Y316D01*
X240Y316D01*
X240Y320D01*
X242Y320D01*
X242Y324D01*
X244Y324D01*
X244Y328D01*
X246Y328D01*
X246Y330D01*
X248Y330D01*
X248Y350D01*
X236Y350D01*
X236Y448D01*
X40Y448D01*
G37*
D02*
G36*
X334Y440D02*
X334Y350D01*
X322Y350D01*
X322Y332D01*
X1058Y332D01*
X1058Y330D01*
X1066Y330D01*
X1066Y328D01*
X1560Y328D01*
X1560Y326D01*
X1566Y326D01*
X1566Y324D01*
X1570Y324D01*
X1570Y322D01*
X1574Y322D01*
X1574Y320D01*
X1576Y320D01*
X1576Y318D01*
X1578Y318D01*
X1578Y316D01*
X1582Y316D01*
X1582Y312D01*
X1584Y312D01*
X1584Y310D01*
X1586Y310D01*
X1586Y308D01*
X1588Y308D01*
X1588Y304D01*
X1590Y304D01*
X1590Y300D01*
X1592Y300D01*
X1592Y294D01*
X1594Y294D01*
X1594Y284D01*
X1596Y284D01*
X1596Y280D01*
X1594Y280D01*
X1594Y268D01*
X1592Y268D01*
X1592Y262D01*
X1590Y262D01*
X1590Y258D01*
X1588Y258D01*
X1588Y256D01*
X1586Y256D01*
X1586Y252D01*
X1584Y252D01*
X1584Y250D01*
X1582Y250D01*
X1582Y248D01*
X1580Y248D01*
X1580Y246D01*
X1578Y246D01*
X1578Y244D01*
X1576Y244D01*
X1576Y242D01*
X1572Y242D01*
X1572Y240D01*
X1568Y240D01*
X1568Y238D01*
X1564Y238D01*
X1564Y236D01*
X1558Y236D01*
X1558Y234D01*
X1794Y234D01*
X1794Y236D01*
X1786Y236D01*
X1786Y238D01*
X1782Y238D01*
X1782Y240D01*
X1778Y240D01*
X1778Y242D01*
X1776Y242D01*
X1776Y244D01*
X1774Y244D01*
X1774Y246D01*
X1770Y246D01*
X1770Y248D01*
X1768Y248D01*
X1768Y252D01*
X1766Y252D01*
X1766Y254D01*
X1764Y254D01*
X1764Y258D01*
X1762Y258D01*
X1762Y260D01*
X1760Y260D01*
X1760Y266D01*
X1758Y266D01*
X1758Y272D01*
X1756Y272D01*
X1756Y290D01*
X1758Y290D01*
X1758Y298D01*
X1760Y298D01*
X1760Y302D01*
X1762Y302D01*
X1762Y306D01*
X1764Y306D01*
X1764Y308D01*
X1766Y308D01*
X1766Y312D01*
X1768Y312D01*
X1768Y314D01*
X1770Y314D01*
X1770Y316D01*
X1772Y316D01*
X1772Y318D01*
X1774Y318D01*
X1774Y320D01*
X1778Y320D01*
X1778Y322D01*
X1782Y322D01*
X1782Y324D01*
X1784Y324D01*
X1784Y366D01*
X1786Y366D01*
X1786Y410D01*
X1788Y410D01*
X1788Y418D01*
X1790Y418D01*
X1790Y422D01*
X1792Y422D01*
X1792Y424D01*
X1794Y424D01*
X1794Y426D01*
X1796Y426D01*
X1796Y428D01*
X1800Y428D01*
X1800Y430D01*
X1826Y430D01*
X1826Y432D01*
X1916Y432D01*
X1916Y434D01*
X2004Y434D01*
X2004Y436D01*
X2094Y436D01*
X2094Y438D01*
X2182Y438D01*
X2182Y440D01*
X334Y440D01*
G37*
D02*
G36*
X2182Y396D02*
X2182Y394D01*
X2094Y394D01*
X2094Y392D01*
X2004Y392D01*
X2004Y390D01*
X1916Y390D01*
X1916Y388D01*
X1830Y388D01*
X1830Y364D01*
X1828Y364D01*
X1828Y324D01*
X2564Y324D01*
X2564Y322D01*
X2576Y322D01*
X2576Y320D01*
X2582Y320D01*
X2582Y318D01*
X2586Y318D01*
X2586Y316D01*
X2588Y316D01*
X2588Y314D01*
X2592Y314D01*
X2592Y312D01*
X2594Y312D01*
X2594Y310D01*
X2596Y310D01*
X2596Y308D01*
X2598Y308D01*
X2598Y306D01*
X2600Y306D01*
X2600Y304D01*
X2602Y304D01*
X2602Y300D01*
X2604Y300D01*
X2604Y296D01*
X2606Y296D01*
X2606Y294D01*
X2608Y294D01*
X2608Y292D01*
X2628Y292D01*
X2628Y290D01*
X2648Y290D01*
X2648Y288D01*
X2668Y288D01*
X2668Y286D01*
X2688Y286D01*
X2688Y284D01*
X2708Y284D01*
X2708Y282D01*
X2728Y282D01*
X2728Y280D01*
X2748Y280D01*
X2748Y278D01*
X2768Y278D01*
X2768Y276D01*
X2788Y276D01*
X2788Y274D01*
X2808Y274D01*
X2808Y272D01*
X2828Y272D01*
X2828Y270D01*
X2848Y270D01*
X2848Y268D01*
X2868Y268D01*
X2868Y266D01*
X2888Y266D01*
X2888Y264D01*
X2900Y264D01*
X2900Y262D01*
X2904Y262D01*
X2904Y260D01*
X2906Y260D01*
X2906Y258D01*
X2908Y258D01*
X2908Y256D01*
X2910Y256D01*
X2910Y254D01*
X2912Y254D01*
X2912Y252D01*
X2914Y252D01*
X2914Y250D01*
X2916Y250D01*
X2916Y248D01*
X2918Y248D01*
X2918Y246D01*
X2920Y246D01*
X2920Y244D01*
X2922Y244D01*
X2922Y242D01*
X2924Y242D01*
X2924Y240D01*
X2926Y240D01*
X2926Y238D01*
X2928Y238D01*
X2928Y236D01*
X2930Y236D01*
X2930Y234D01*
X2932Y234D01*
X2932Y232D01*
X2934Y232D01*
X2934Y230D01*
X2936Y230D01*
X2936Y228D01*
X2938Y228D01*
X2938Y226D01*
X2940Y226D01*
X2940Y224D01*
X2942Y224D01*
X2942Y222D01*
X2944Y222D01*
X2944Y220D01*
X2946Y220D01*
X2946Y218D01*
X2948Y218D01*
X2948Y216D01*
X2950Y216D01*
X2950Y214D01*
X2952Y214D01*
X2952Y212D01*
X2954Y212D01*
X2954Y210D01*
X2956Y210D01*
X2956Y208D01*
X2958Y208D01*
X2958Y206D01*
X2960Y206D01*
X2960Y204D01*
X2962Y204D01*
X2962Y202D01*
X2964Y202D01*
X2964Y200D01*
X2966Y200D01*
X2966Y198D01*
X2968Y198D01*
X2968Y196D01*
X2970Y196D01*
X2970Y194D01*
X2972Y194D01*
X2972Y192D01*
X2974Y192D01*
X2974Y190D01*
X2976Y190D01*
X2976Y188D01*
X2978Y188D01*
X2978Y186D01*
X2980Y186D01*
X2980Y184D01*
X2982Y184D01*
X2982Y182D01*
X2984Y182D01*
X2984Y180D01*
X2986Y180D01*
X2986Y178D01*
X2988Y178D01*
X2988Y176D01*
X2990Y176D01*
X2990Y174D01*
X2992Y174D01*
X2992Y172D01*
X2994Y172D01*
X2994Y170D01*
X2996Y170D01*
X2996Y168D01*
X2998Y168D01*
X2998Y166D01*
X3000Y166D01*
X3000Y164D01*
X3002Y164D01*
X3002Y162D01*
X3004Y162D01*
X3004Y160D01*
X3006Y160D01*
X3006Y158D01*
X3008Y158D01*
X3008Y156D01*
X3010Y156D01*
X3010Y154D01*
X3012Y154D01*
X3012Y152D01*
X3014Y152D01*
X3014Y150D01*
X3016Y150D01*
X3016Y148D01*
X3018Y148D01*
X3018Y146D01*
X3020Y146D01*
X3020Y144D01*
X3022Y144D01*
X3022Y142D01*
X3024Y142D01*
X3024Y140D01*
X3026Y140D01*
X3026Y138D01*
X3028Y138D01*
X3028Y136D01*
X3030Y136D01*
X3030Y134D01*
X3032Y134D01*
X3032Y132D01*
X3034Y132D01*
X3034Y130D01*
X3036Y130D01*
X3036Y128D01*
X3038Y128D01*
X3038Y126D01*
X3040Y126D01*
X3040Y124D01*
X3042Y124D01*
X3042Y122D01*
X3062Y122D01*
X3062Y140D01*
X3060Y140D01*
X3060Y142D01*
X3058Y142D01*
X3058Y144D01*
X3056Y144D01*
X3056Y146D01*
X3054Y146D01*
X3054Y148D01*
X3052Y148D01*
X3052Y150D01*
X3050Y150D01*
X3050Y152D01*
X3048Y152D01*
X3048Y154D01*
X3046Y154D01*
X3046Y156D01*
X3044Y156D01*
X3044Y158D01*
X3042Y158D01*
X3042Y160D01*
X3040Y160D01*
X3040Y162D01*
X3038Y162D01*
X3038Y164D01*
X3036Y164D01*
X3036Y166D01*
X3034Y166D01*
X3034Y168D01*
X3032Y168D01*
X3032Y170D01*
X3030Y170D01*
X3030Y172D01*
X3028Y172D01*
X3028Y174D01*
X3026Y174D01*
X3026Y176D01*
X3024Y176D01*
X3024Y178D01*
X3022Y178D01*
X3022Y180D01*
X3020Y180D01*
X3020Y182D01*
X3018Y182D01*
X3018Y184D01*
X3016Y184D01*
X3016Y186D01*
X3014Y186D01*
X3014Y188D01*
X3012Y188D01*
X3012Y190D01*
X3010Y190D01*
X3010Y192D01*
X3008Y192D01*
X3008Y194D01*
X3006Y194D01*
X3006Y196D01*
X3004Y196D01*
X3004Y198D01*
X3002Y198D01*
X3002Y200D01*
X3000Y200D01*
X3000Y202D01*
X2998Y202D01*
X2998Y204D01*
X2996Y204D01*
X2996Y206D01*
X2994Y206D01*
X2994Y208D01*
X2992Y208D01*
X2992Y210D01*
X2990Y210D01*
X2990Y212D01*
X2988Y212D01*
X2988Y214D01*
X2986Y214D01*
X2986Y216D01*
X2984Y216D01*
X2984Y218D01*
X2982Y218D01*
X2982Y220D01*
X2980Y220D01*
X2980Y222D01*
X2978Y222D01*
X2978Y224D01*
X2976Y224D01*
X2976Y226D01*
X2974Y226D01*
X2974Y228D01*
X2972Y228D01*
X2972Y230D01*
X2970Y230D01*
X2970Y232D01*
X2968Y232D01*
X2968Y234D01*
X2966Y234D01*
X2966Y236D01*
X2964Y236D01*
X2964Y238D01*
X2962Y238D01*
X2962Y240D01*
X2960Y240D01*
X2960Y242D01*
X2958Y242D01*
X2958Y244D01*
X2956Y244D01*
X2956Y246D01*
X2954Y246D01*
X2954Y248D01*
X2952Y248D01*
X2952Y250D01*
X2948Y250D01*
X2948Y252D01*
X2946Y252D01*
X2946Y254D01*
X2944Y254D01*
X2944Y256D01*
X2942Y256D01*
X2942Y258D01*
X2940Y258D01*
X2940Y260D01*
X2938Y260D01*
X2938Y262D01*
X2936Y262D01*
X2936Y264D01*
X2934Y264D01*
X2934Y266D01*
X2932Y266D01*
X2932Y268D01*
X2930Y268D01*
X2930Y270D01*
X2928Y270D01*
X2928Y272D01*
X2926Y272D01*
X2926Y274D01*
X2924Y274D01*
X2924Y276D01*
X2922Y276D01*
X2922Y278D01*
X2920Y278D01*
X2920Y280D01*
X2918Y280D01*
X2918Y282D01*
X2916Y282D01*
X2916Y284D01*
X2914Y284D01*
X2914Y286D01*
X2912Y286D01*
X2912Y288D01*
X2910Y288D01*
X2910Y290D01*
X2908Y290D01*
X2908Y292D01*
X2906Y292D01*
X2906Y294D01*
X2902Y294D01*
X2902Y296D01*
X2894Y296D01*
X2894Y298D01*
X2886Y298D01*
X2886Y300D01*
X2878Y300D01*
X2878Y302D01*
X2870Y302D01*
X2870Y304D01*
X2862Y304D01*
X2862Y306D01*
X2854Y306D01*
X2854Y308D01*
X2844Y308D01*
X2844Y310D01*
X2836Y310D01*
X2836Y312D01*
X2828Y312D01*
X2828Y314D01*
X2820Y314D01*
X2820Y316D01*
X2812Y316D01*
X2812Y318D01*
X2804Y318D01*
X2804Y320D01*
X2796Y320D01*
X2796Y322D01*
X2786Y322D01*
X2786Y324D01*
X2778Y324D01*
X2778Y326D01*
X2770Y326D01*
X2770Y328D01*
X2762Y328D01*
X2762Y330D01*
X2754Y330D01*
X2754Y332D01*
X2746Y332D01*
X2746Y334D01*
X2738Y334D01*
X2738Y336D01*
X2728Y336D01*
X2728Y338D01*
X2720Y338D01*
X2720Y340D01*
X2712Y340D01*
X2712Y342D01*
X2704Y342D01*
X2704Y344D01*
X2696Y344D01*
X2696Y346D01*
X2688Y346D01*
X2688Y348D01*
X2680Y348D01*
X2680Y350D01*
X2670Y350D01*
X2670Y352D01*
X2662Y352D01*
X2662Y354D01*
X2654Y354D01*
X2654Y356D01*
X2644Y356D01*
X2644Y358D01*
X2626Y358D01*
X2626Y360D01*
X2610Y360D01*
X2610Y362D01*
X2592Y362D01*
X2592Y364D01*
X2576Y364D01*
X2576Y366D01*
X2558Y366D01*
X2558Y368D01*
X2542Y368D01*
X2542Y370D01*
X2524Y370D01*
X2524Y372D01*
X2508Y372D01*
X2508Y374D01*
X2490Y374D01*
X2490Y376D01*
X2472Y376D01*
X2472Y378D01*
X2452Y378D01*
X2452Y380D01*
X2430Y380D01*
X2430Y382D01*
X2408Y382D01*
X2408Y384D01*
X2386Y384D01*
X2386Y386D01*
X2366Y386D01*
X2366Y388D01*
X2344Y388D01*
X2344Y390D01*
X2322Y390D01*
X2322Y392D01*
X2300Y392D01*
X2300Y394D01*
X2280Y394D01*
X2280Y396D01*
X2182Y396D01*
G37*
D02*
G36*
X322Y332D02*
X322Y330D01*
X324Y330D01*
X324Y328D01*
X326Y328D01*
X326Y324D01*
X328Y324D01*
X328Y320D01*
X330Y320D01*
X330Y314D01*
X332Y314D01*
X332Y308D01*
X334Y308D01*
X334Y290D01*
X332Y290D01*
X332Y284D01*
X330Y284D01*
X330Y278D01*
X328Y278D01*
X328Y274D01*
X326Y274D01*
X326Y272D01*
X324Y272D01*
X324Y268D01*
X322Y268D01*
X322Y266D01*
X320Y266D01*
X320Y264D01*
X318Y264D01*
X318Y262D01*
X316Y262D01*
X316Y260D01*
X312Y260D01*
X312Y258D01*
X310Y258D01*
X310Y256D01*
X306Y256D01*
X306Y254D01*
X300Y254D01*
X300Y252D01*
X292Y252D01*
X292Y250D01*
X762Y250D01*
X762Y252D01*
X760Y252D01*
X760Y254D01*
X758Y254D01*
X758Y256D01*
X756Y256D01*
X756Y258D01*
X754Y258D01*
X754Y262D01*
X752Y262D01*
X752Y266D01*
X750Y266D01*
X750Y274D01*
X748Y274D01*
X748Y296D01*
X750Y296D01*
X750Y302D01*
X752Y302D01*
X752Y306D01*
X754Y306D01*
X754Y310D01*
X756Y310D01*
X756Y312D01*
X758Y312D01*
X758Y314D01*
X760Y314D01*
X760Y318D01*
X762Y318D01*
X762Y320D01*
X766Y320D01*
X766Y322D01*
X768Y322D01*
X768Y324D01*
X772Y324D01*
X772Y326D01*
X774Y326D01*
X774Y328D01*
X780Y328D01*
X780Y330D01*
X788Y330D01*
X788Y332D01*
X322Y332D01*
G37*
D02*
G36*
X802Y332D02*
X802Y330D01*
X810Y330D01*
X810Y328D01*
X816Y328D01*
X816Y326D01*
X818Y326D01*
X818Y324D01*
X822Y324D01*
X822Y322D01*
X824Y322D01*
X824Y320D01*
X828Y320D01*
X828Y318D01*
X830Y318D01*
X830Y314D01*
X832Y314D01*
X832Y312D01*
X834Y312D01*
X834Y310D01*
X836Y310D01*
X836Y306D01*
X838Y306D01*
X838Y302D01*
X840Y302D01*
X840Y296D01*
X842Y296D01*
X842Y274D01*
X840Y274D01*
X840Y266D01*
X838Y266D01*
X838Y262D01*
X836Y262D01*
X836Y258D01*
X834Y258D01*
X834Y256D01*
X832Y256D01*
X832Y254D01*
X830Y254D01*
X830Y252D01*
X828Y252D01*
X828Y250D01*
X826Y250D01*
X826Y248D01*
X824Y248D01*
X824Y246D01*
X822Y246D01*
X822Y244D01*
X818Y244D01*
X818Y242D01*
X814Y242D01*
X814Y240D01*
X808Y240D01*
X808Y238D01*
X800Y238D01*
X800Y236D01*
X1046Y236D01*
X1046Y238D01*
X1038Y238D01*
X1038Y240D01*
X1032Y240D01*
X1032Y242D01*
X1028Y242D01*
X1028Y244D01*
X1024Y244D01*
X1024Y246D01*
X1022Y246D01*
X1022Y248D01*
X1020Y248D01*
X1020Y250D01*
X1018Y250D01*
X1018Y252D01*
X1016Y252D01*
X1016Y254D01*
X1014Y254D01*
X1014Y256D01*
X1012Y256D01*
X1012Y258D01*
X1010Y258D01*
X1010Y262D01*
X1008Y262D01*
X1008Y266D01*
X1006Y266D01*
X1006Y272D01*
X1004Y272D01*
X1004Y296D01*
X1006Y296D01*
X1006Y302D01*
X1008Y302D01*
X1008Y306D01*
X1010Y306D01*
X1010Y310D01*
X1012Y310D01*
X1012Y312D01*
X1014Y312D01*
X1014Y314D01*
X1016Y314D01*
X1016Y318D01*
X1018Y318D01*
X1018Y320D01*
X1022Y320D01*
X1022Y322D01*
X1024Y322D01*
X1024Y324D01*
X1028Y324D01*
X1028Y326D01*
X1030Y326D01*
X1030Y328D01*
X1036Y328D01*
X1036Y330D01*
X1044Y330D01*
X1044Y332D01*
X802Y332D01*
G37*
D02*
G36*
X1072Y328D02*
X1072Y326D01*
X1074Y326D01*
X1074Y324D01*
X1078Y324D01*
X1078Y322D01*
X1080Y322D01*
X1080Y320D01*
X1082Y320D01*
X1082Y318D01*
X1086Y318D01*
X1086Y314D01*
X1088Y314D01*
X1088Y312D01*
X1090Y312D01*
X1090Y310D01*
X1092Y310D01*
X1092Y306D01*
X1094Y306D01*
X1094Y302D01*
X1096Y302D01*
X1096Y294D01*
X1098Y294D01*
X1098Y274D01*
X1096Y274D01*
X1096Y266D01*
X1094Y266D01*
X1094Y262D01*
X1092Y262D01*
X1092Y260D01*
X1090Y260D01*
X1090Y256D01*
X1088Y256D01*
X1088Y254D01*
X1086Y254D01*
X1086Y252D01*
X1084Y252D01*
X1084Y250D01*
X1082Y250D01*
X1082Y248D01*
X1080Y248D01*
X1080Y246D01*
X1078Y246D01*
X1078Y244D01*
X1074Y244D01*
X1074Y242D01*
X1070Y242D01*
X1070Y240D01*
X1064Y240D01*
X1064Y238D01*
X1056Y238D01*
X1056Y236D01*
X1532Y236D01*
X1532Y238D01*
X1526Y238D01*
X1526Y240D01*
X1522Y240D01*
X1522Y242D01*
X1520Y242D01*
X1520Y244D01*
X1518Y244D01*
X1518Y246D01*
X1514Y246D01*
X1514Y250D01*
X1512Y250D01*
X1512Y252D01*
X1510Y252D01*
X1510Y254D01*
X1508Y254D01*
X1508Y258D01*
X1506Y258D01*
X1506Y260D01*
X1504Y260D01*
X1504Y266D01*
X1502Y266D01*
X1502Y272D01*
X1500Y272D01*
X1500Y290D01*
X1502Y290D01*
X1502Y296D01*
X1504Y296D01*
X1504Y302D01*
X1506Y302D01*
X1506Y306D01*
X1508Y306D01*
X1508Y308D01*
X1510Y308D01*
X1510Y312D01*
X1512Y312D01*
X1512Y314D01*
X1514Y314D01*
X1514Y316D01*
X1516Y316D01*
X1516Y318D01*
X1520Y318D01*
X1520Y320D01*
X1522Y320D01*
X1522Y322D01*
X1526Y322D01*
X1526Y324D01*
X1530Y324D01*
X1530Y326D01*
X1536Y326D01*
X1536Y328D01*
X1072Y328D01*
G37*
D02*
G36*
X1828Y324D02*
X1828Y322D01*
X1830Y322D01*
X1830Y320D01*
X1832Y320D01*
X1832Y318D01*
X1834Y318D01*
X1834Y316D01*
X1836Y316D01*
X1836Y314D01*
X1838Y314D01*
X1838Y312D01*
X1840Y312D01*
X1840Y310D01*
X1842Y310D01*
X1842Y308D01*
X1844Y308D01*
X1844Y304D01*
X1846Y304D01*
X1846Y300D01*
X1848Y300D01*
X1848Y294D01*
X1850Y294D01*
X1850Y282D01*
X1852Y282D01*
X1852Y280D01*
X1850Y280D01*
X1850Y268D01*
X1848Y268D01*
X1848Y262D01*
X1846Y262D01*
X1846Y258D01*
X1844Y258D01*
X1844Y256D01*
X1842Y256D01*
X1842Y252D01*
X1840Y252D01*
X1840Y250D01*
X1838Y250D01*
X1838Y248D01*
X1836Y248D01*
X1836Y246D01*
X1834Y246D01*
X1834Y244D01*
X1832Y244D01*
X1832Y242D01*
X1828Y242D01*
X1828Y240D01*
X1824Y240D01*
X1824Y238D01*
X1820Y238D01*
X1820Y236D01*
X1814Y236D01*
X1814Y234D01*
X2282Y234D01*
X2282Y236D01*
X2280Y236D01*
X2280Y238D01*
X2276Y238D01*
X2276Y240D01*
X2274Y240D01*
X2274Y242D01*
X2272Y242D01*
X2272Y244D01*
X2270Y244D01*
X2270Y248D01*
X2268Y248D01*
X2268Y250D01*
X2266Y250D01*
X2266Y254D01*
X2264Y254D01*
X2264Y258D01*
X2262Y258D01*
X2262Y264D01*
X2260Y264D01*
X2260Y288D01*
X2262Y288D01*
X2262Y294D01*
X2264Y294D01*
X2264Y298D01*
X2266Y298D01*
X2266Y302D01*
X2268Y302D01*
X2268Y304D01*
X2270Y304D01*
X2270Y306D01*
X2272Y306D01*
X2272Y308D01*
X2274Y308D01*
X2274Y310D01*
X2276Y310D01*
X2276Y312D01*
X2278Y312D01*
X2278Y314D01*
X2280Y314D01*
X2280Y316D01*
X2284Y316D01*
X2284Y318D01*
X2288Y318D01*
X2288Y320D01*
X2294Y320D01*
X2294Y322D01*
X2306Y322D01*
X2306Y324D01*
X1828Y324D01*
G37*
D02*
G36*
X2308Y324D02*
X2308Y322D01*
X2320Y322D01*
X2320Y320D01*
X2326Y320D01*
X2326Y318D01*
X2330Y318D01*
X2330Y316D01*
X2332Y316D01*
X2332Y314D01*
X2336Y314D01*
X2336Y312D01*
X2338Y312D01*
X2338Y310D01*
X2340Y310D01*
X2340Y308D01*
X2342Y308D01*
X2342Y306D01*
X2344Y306D01*
X2344Y304D01*
X2346Y304D01*
X2346Y300D01*
X2348Y300D01*
X2348Y296D01*
X2350Y296D01*
X2350Y292D01*
X2352Y292D01*
X2352Y286D01*
X2354Y286D01*
X2354Y266D01*
X2352Y266D01*
X2352Y258D01*
X2350Y258D01*
X2350Y254D01*
X2348Y254D01*
X2348Y250D01*
X2346Y250D01*
X2346Y248D01*
X2344Y248D01*
X2344Y246D01*
X2342Y246D01*
X2342Y242D01*
X2340Y242D01*
X2340Y240D01*
X2336Y240D01*
X2336Y238D01*
X2334Y238D01*
X2334Y236D01*
X2332Y236D01*
X2332Y234D01*
X2328Y234D01*
X2328Y232D01*
X2322Y232D01*
X2322Y230D01*
X2316Y230D01*
X2316Y228D01*
X2554Y228D01*
X2554Y230D01*
X2546Y230D01*
X2546Y232D01*
X2542Y232D01*
X2542Y234D01*
X2538Y234D01*
X2538Y236D01*
X2536Y236D01*
X2536Y238D01*
X2532Y238D01*
X2532Y240D01*
X2530Y240D01*
X2530Y242D01*
X2528Y242D01*
X2528Y244D01*
X2526Y244D01*
X2526Y246D01*
X2524Y246D01*
X2524Y250D01*
X2522Y250D01*
X2522Y254D01*
X2520Y254D01*
X2520Y256D01*
X2518Y256D01*
X2518Y264D01*
X2516Y264D01*
X2516Y288D01*
X2518Y288D01*
X2518Y294D01*
X2520Y294D01*
X2520Y298D01*
X2522Y298D01*
X2522Y302D01*
X2524Y302D01*
X2524Y304D01*
X2526Y304D01*
X2526Y306D01*
X2528Y306D01*
X2528Y308D01*
X2530Y308D01*
X2530Y310D01*
X2532Y310D01*
X2532Y312D01*
X2534Y312D01*
X2534Y314D01*
X2536Y314D01*
X2536Y316D01*
X2540Y316D01*
X2540Y318D01*
X2544Y318D01*
X2544Y320D01*
X2550Y320D01*
X2550Y322D01*
X2562Y322D01*
X2562Y324D01*
X2308Y324D01*
G37*
D02*
G36*
X40Y250D02*
X40Y248D01*
X764Y248D01*
X764Y250D01*
X40Y250D01*
G37*
D02*
G36*
X40Y250D02*
X40Y248D01*
X764Y248D01*
X764Y250D01*
X40Y250D01*
G37*
D02*
G36*
X40Y248D02*
X40Y236D01*
X790Y236D01*
X790Y238D01*
X782Y238D01*
X782Y240D01*
X776Y240D01*
X776Y242D01*
X772Y242D01*
X772Y244D01*
X768Y244D01*
X768Y246D01*
X766Y246D01*
X766Y248D01*
X40Y248D01*
G37*
D02*
G36*
X2600Y248D02*
X2600Y246D01*
X2598Y246D01*
X2598Y242D01*
X2596Y242D01*
X2596Y240D01*
X2592Y240D01*
X2592Y238D01*
X2590Y238D01*
X2590Y236D01*
X2586Y236D01*
X2586Y234D01*
X2584Y234D01*
X2584Y232D01*
X2578Y232D01*
X2578Y230D01*
X2572Y230D01*
X2572Y228D01*
X2806Y228D01*
X2806Y230D01*
X2786Y230D01*
X2786Y232D01*
X2766Y232D01*
X2766Y234D01*
X2746Y234D01*
X2746Y236D01*
X2726Y236D01*
X2726Y238D01*
X2706Y238D01*
X2706Y240D01*
X2686Y240D01*
X2686Y242D01*
X2666Y242D01*
X2666Y244D01*
X2646Y244D01*
X2646Y246D01*
X2626Y246D01*
X2626Y248D01*
X2600Y248D01*
G37*
D02*
G36*
X40Y236D02*
X40Y234D01*
X1538Y234D01*
X1538Y236D01*
X40Y236D01*
G37*
D02*
G36*
X40Y236D02*
X40Y234D01*
X1538Y234D01*
X1538Y236D01*
X40Y236D01*
G37*
D02*
G36*
X40Y236D02*
X40Y234D01*
X1538Y234D01*
X1538Y236D01*
X40Y236D01*
G37*
D02*
G36*
X40Y234D02*
X40Y232D01*
X2286Y232D01*
X2286Y234D01*
X40Y234D01*
G37*
D02*
G36*
X40Y234D02*
X40Y232D01*
X2286Y232D01*
X2286Y234D01*
X40Y234D01*
G37*
D02*
G36*
X40Y234D02*
X40Y232D01*
X2286Y232D01*
X2286Y234D01*
X40Y234D01*
G37*
D02*
G36*
X40Y232D02*
X40Y228D01*
X2298Y228D01*
X2298Y230D01*
X2290Y230D01*
X2290Y232D01*
X40Y232D01*
G37*
D02*
G36*
X40Y228D02*
X40Y226D01*
X2826Y226D01*
X2826Y228D01*
X40Y228D01*
G37*
D02*
G36*
X40Y228D02*
X40Y226D01*
X2826Y226D01*
X2826Y228D01*
X40Y228D01*
G37*
D02*
G36*
X40Y228D02*
X40Y226D01*
X2826Y226D01*
X2826Y228D01*
X40Y228D01*
G37*
D02*
G36*
X40Y226D02*
X40Y154D01*
X1062Y154D01*
X1062Y152D01*
X1810Y152D01*
X1810Y150D01*
X1818Y150D01*
X1818Y148D01*
X1824Y148D01*
X1824Y146D01*
X2572Y146D01*
X2572Y144D01*
X2578Y144D01*
X2578Y142D01*
X2584Y142D01*
X2584Y140D01*
X2586Y140D01*
X2586Y138D01*
X2590Y138D01*
X2590Y136D01*
X2592Y136D01*
X2592Y134D01*
X2594Y134D01*
X2594Y132D01*
X2598Y132D01*
X2598Y128D01*
X2600Y128D01*
X2600Y126D01*
X2602Y126D01*
X2602Y122D01*
X2604Y122D01*
X2604Y120D01*
X2606Y120D01*
X2606Y118D01*
X2612Y118D01*
X2612Y116D01*
X2640Y116D01*
X2640Y114D01*
X2668Y114D01*
X2668Y112D01*
X2696Y112D01*
X2696Y110D01*
X2726Y110D01*
X2726Y108D01*
X2754Y108D01*
X2754Y106D01*
X2782Y106D01*
X2782Y104D01*
X2810Y104D01*
X2810Y102D01*
X2840Y102D01*
X2840Y100D01*
X2868Y100D01*
X2868Y98D01*
X2896Y98D01*
X2896Y96D01*
X2922Y96D01*
X2922Y98D01*
X2924Y98D01*
X2924Y100D01*
X2926Y100D01*
X2926Y102D01*
X2928Y102D01*
X2928Y104D01*
X2930Y104D01*
X2930Y106D01*
X2932Y106D01*
X2932Y108D01*
X2934Y108D01*
X2934Y110D01*
X2936Y110D01*
X2936Y112D01*
X2940Y112D01*
X2940Y114D01*
X2944Y114D01*
X2944Y116D01*
X2950Y116D01*
X2950Y118D01*
X2960Y118D01*
X2960Y120D01*
X2964Y120D01*
X2964Y140D01*
X2962Y140D01*
X2962Y142D01*
X2960Y142D01*
X2960Y144D01*
X2958Y144D01*
X2958Y146D01*
X2956Y146D01*
X2956Y148D01*
X2954Y148D01*
X2954Y150D01*
X2952Y150D01*
X2952Y152D01*
X2950Y152D01*
X2950Y154D01*
X2948Y154D01*
X2948Y156D01*
X2946Y156D01*
X2946Y158D01*
X2944Y158D01*
X2944Y160D01*
X2942Y160D01*
X2942Y162D01*
X2940Y162D01*
X2940Y164D01*
X2938Y164D01*
X2938Y166D01*
X2936Y166D01*
X2936Y168D01*
X2934Y168D01*
X2934Y170D01*
X2932Y170D01*
X2932Y172D01*
X2930Y172D01*
X2930Y174D01*
X2928Y174D01*
X2928Y176D01*
X2926Y176D01*
X2926Y178D01*
X2924Y178D01*
X2924Y180D01*
X2922Y180D01*
X2922Y182D01*
X2920Y182D01*
X2920Y184D01*
X2918Y184D01*
X2918Y186D01*
X2916Y186D01*
X2916Y188D01*
X2914Y188D01*
X2914Y190D01*
X2912Y190D01*
X2912Y192D01*
X2910Y192D01*
X2910Y194D01*
X2908Y194D01*
X2908Y196D01*
X2906Y196D01*
X2906Y198D01*
X2904Y198D01*
X2904Y200D01*
X2902Y200D01*
X2902Y202D01*
X2900Y202D01*
X2900Y204D01*
X2898Y204D01*
X2898Y206D01*
X2896Y206D01*
X2896Y208D01*
X2894Y208D01*
X2894Y210D01*
X2892Y210D01*
X2892Y212D01*
X2890Y212D01*
X2890Y214D01*
X2888Y214D01*
X2888Y216D01*
X2886Y216D01*
X2886Y218D01*
X2884Y218D01*
X2884Y220D01*
X2882Y220D01*
X2882Y222D01*
X2866Y222D01*
X2866Y224D01*
X2846Y224D01*
X2846Y226D01*
X40Y226D01*
G37*
D02*
G36*
X40Y154D02*
X40Y108D01*
X364Y108D01*
X364Y106D01*
X372Y106D01*
X372Y104D01*
X376Y104D01*
X376Y102D01*
X380Y102D01*
X380Y100D01*
X382Y100D01*
X382Y98D01*
X384Y98D01*
X384Y96D01*
X388Y96D01*
X388Y94D01*
X390Y94D01*
X390Y90D01*
X392Y90D01*
X392Y88D01*
X394Y88D01*
X394Y86D01*
X396Y86D01*
X396Y82D01*
X398Y82D01*
X398Y78D01*
X400Y78D01*
X400Y72D01*
X402Y72D01*
X402Y42D01*
X784Y42D01*
X784Y62D01*
X778Y62D01*
X778Y64D01*
X774Y64D01*
X774Y66D01*
X770Y66D01*
X770Y68D01*
X766Y68D01*
X766Y70D01*
X764Y70D01*
X764Y72D01*
X762Y72D01*
X762Y74D01*
X760Y74D01*
X760Y76D01*
X758Y76D01*
X758Y78D01*
X756Y78D01*
X756Y82D01*
X754Y82D01*
X754Y86D01*
X752Y86D01*
X752Y90D01*
X750Y90D01*
X750Y96D01*
X748Y96D01*
X748Y118D01*
X750Y118D01*
X750Y124D01*
X752Y124D01*
X752Y128D01*
X754Y128D01*
X754Y132D01*
X756Y132D01*
X756Y136D01*
X758Y136D01*
X758Y138D01*
X760Y138D01*
X760Y140D01*
X762Y140D01*
X762Y142D01*
X764Y142D01*
X764Y144D01*
X766Y144D01*
X766Y146D01*
X770Y146D01*
X770Y148D01*
X774Y148D01*
X774Y150D01*
X778Y150D01*
X778Y152D01*
X784Y152D01*
X784Y154D01*
X40Y154D01*
G37*
D02*
G36*
X806Y154D02*
X806Y152D01*
X812Y152D01*
X812Y150D01*
X816Y150D01*
X816Y148D01*
X820Y148D01*
X820Y146D01*
X824Y146D01*
X824Y144D01*
X826Y144D01*
X826Y142D01*
X828Y142D01*
X828Y140D01*
X830Y140D01*
X830Y138D01*
X832Y138D01*
X832Y136D01*
X834Y136D01*
X834Y132D01*
X836Y132D01*
X836Y128D01*
X838Y128D01*
X838Y124D01*
X840Y124D01*
X840Y118D01*
X842Y118D01*
X842Y96D01*
X840Y96D01*
X840Y90D01*
X838Y90D01*
X838Y86D01*
X836Y86D01*
X836Y82D01*
X834Y82D01*
X834Y78D01*
X832Y78D01*
X832Y76D01*
X830Y76D01*
X830Y74D01*
X828Y74D01*
X828Y72D01*
X826Y72D01*
X826Y70D01*
X824Y70D01*
X824Y68D01*
X820Y68D01*
X820Y66D01*
X816Y66D01*
X816Y64D01*
X812Y64D01*
X812Y62D01*
X806Y62D01*
X806Y42D01*
X1040Y42D01*
X1040Y62D01*
X1034Y62D01*
X1034Y64D01*
X1030Y64D01*
X1030Y66D01*
X1026Y66D01*
X1026Y68D01*
X1022Y68D01*
X1022Y70D01*
X1020Y70D01*
X1020Y72D01*
X1018Y72D01*
X1018Y74D01*
X1016Y74D01*
X1016Y76D01*
X1014Y76D01*
X1014Y78D01*
X1012Y78D01*
X1012Y82D01*
X1010Y82D01*
X1010Y86D01*
X1008Y86D01*
X1008Y90D01*
X1006Y90D01*
X1006Y96D01*
X1004Y96D01*
X1004Y118D01*
X1006Y118D01*
X1006Y124D01*
X1008Y124D01*
X1008Y128D01*
X1010Y128D01*
X1010Y132D01*
X1012Y132D01*
X1012Y136D01*
X1014Y136D01*
X1014Y138D01*
X1016Y138D01*
X1016Y140D01*
X1018Y140D01*
X1018Y142D01*
X1020Y142D01*
X1020Y144D01*
X1022Y144D01*
X1022Y146D01*
X1026Y146D01*
X1026Y148D01*
X1030Y148D01*
X1030Y150D01*
X1034Y150D01*
X1034Y152D01*
X1040Y152D01*
X1040Y154D01*
X806Y154D01*
G37*
D02*
G36*
X1068Y152D02*
X1068Y150D01*
X1072Y150D01*
X1072Y148D01*
X1076Y148D01*
X1076Y146D01*
X1080Y146D01*
X1080Y144D01*
X1082Y144D01*
X1082Y142D01*
X1084Y142D01*
X1084Y140D01*
X1086Y140D01*
X1086Y138D01*
X1088Y138D01*
X1088Y136D01*
X1090Y136D01*
X1090Y132D01*
X1092Y132D01*
X1092Y128D01*
X1406Y128D01*
X1406Y126D01*
X1506Y126D01*
X1506Y128D01*
X1508Y128D01*
X1508Y132D01*
X1510Y132D01*
X1510Y134D01*
X1512Y134D01*
X1512Y136D01*
X1514Y136D01*
X1514Y138D01*
X1516Y138D01*
X1516Y140D01*
X1518Y140D01*
X1518Y142D01*
X1520Y142D01*
X1520Y144D01*
X1524Y144D01*
X1524Y146D01*
X1528Y146D01*
X1528Y148D01*
X1532Y148D01*
X1532Y150D01*
X1540Y150D01*
X1540Y152D01*
X1068Y152D01*
G37*
D02*
G36*
X1554Y152D02*
X1554Y150D01*
X1562Y150D01*
X1562Y148D01*
X1568Y148D01*
X1568Y146D01*
X1572Y146D01*
X1572Y144D01*
X1574Y144D01*
X1574Y142D01*
X1578Y142D01*
X1578Y140D01*
X1580Y140D01*
X1580Y138D01*
X1582Y138D01*
X1582Y136D01*
X1584Y136D01*
X1584Y134D01*
X1586Y134D01*
X1586Y130D01*
X1588Y130D01*
X1588Y126D01*
X1590Y126D01*
X1590Y124D01*
X1592Y124D01*
X1592Y118D01*
X1594Y118D01*
X1594Y106D01*
X1596Y106D01*
X1596Y102D01*
X1594Y102D01*
X1594Y92D01*
X1592Y92D01*
X1592Y86D01*
X1590Y86D01*
X1590Y82D01*
X1588Y82D01*
X1588Y78D01*
X1586Y78D01*
X1586Y76D01*
X1584Y76D01*
X1584Y72D01*
X1582Y72D01*
X1582Y70D01*
X1580Y70D01*
X1580Y68D01*
X1576Y68D01*
X1576Y66D01*
X1574Y66D01*
X1574Y64D01*
X1570Y64D01*
X1570Y62D01*
X1568Y62D01*
X1568Y42D01*
X1784Y42D01*
X1784Y62D01*
X1780Y62D01*
X1780Y64D01*
X1776Y64D01*
X1776Y66D01*
X1774Y66D01*
X1774Y68D01*
X1772Y68D01*
X1772Y70D01*
X1770Y70D01*
X1770Y72D01*
X1768Y72D01*
X1768Y74D01*
X1766Y74D01*
X1766Y76D01*
X1764Y76D01*
X1764Y80D01*
X1762Y80D01*
X1762Y84D01*
X1760Y84D01*
X1760Y88D01*
X1758Y88D01*
X1758Y96D01*
X1756Y96D01*
X1756Y114D01*
X1758Y114D01*
X1758Y120D01*
X1760Y120D01*
X1760Y124D01*
X1762Y124D01*
X1762Y128D01*
X1764Y128D01*
X1764Y132D01*
X1766Y132D01*
X1766Y134D01*
X1768Y134D01*
X1768Y136D01*
X1770Y136D01*
X1770Y138D01*
X1772Y138D01*
X1772Y140D01*
X1774Y140D01*
X1774Y142D01*
X1776Y142D01*
X1776Y144D01*
X1780Y144D01*
X1780Y146D01*
X1784Y146D01*
X1784Y148D01*
X1788Y148D01*
X1788Y150D01*
X1796Y150D01*
X1796Y152D01*
X1554Y152D01*
G37*
D02*
G36*
X1828Y146D02*
X1828Y144D01*
X1830Y144D01*
X1830Y142D01*
X1834Y142D01*
X1834Y140D01*
X1836Y140D01*
X1836Y138D01*
X1838Y138D01*
X1838Y136D01*
X1840Y136D01*
X1840Y132D01*
X1842Y132D01*
X1842Y130D01*
X1844Y130D01*
X1844Y126D01*
X1846Y126D01*
X1846Y124D01*
X1848Y124D01*
X1848Y116D01*
X1850Y116D01*
X1850Y92D01*
X1848Y92D01*
X1848Y86D01*
X1846Y86D01*
X1846Y82D01*
X1844Y82D01*
X1844Y78D01*
X1842Y78D01*
X1842Y76D01*
X1840Y76D01*
X1840Y72D01*
X1838Y72D01*
X1838Y70D01*
X1836Y70D01*
X1836Y68D01*
X1832Y68D01*
X1832Y66D01*
X1830Y66D01*
X1830Y64D01*
X1826Y64D01*
X1826Y62D01*
X1824Y62D01*
X1824Y42D01*
X2278Y42D01*
X2278Y62D01*
X2276Y62D01*
X2276Y64D01*
X2274Y64D01*
X2274Y66D01*
X2272Y66D01*
X2272Y68D01*
X2270Y68D01*
X2270Y70D01*
X2268Y70D01*
X2268Y72D01*
X2266Y72D01*
X2266Y76D01*
X2264Y76D01*
X2264Y80D01*
X2262Y80D01*
X2262Y86D01*
X2260Y86D01*
X2260Y110D01*
X2262Y110D01*
X2262Y116D01*
X2264Y116D01*
X2264Y120D01*
X2266Y120D01*
X2266Y124D01*
X2268Y124D01*
X2268Y126D01*
X2270Y126D01*
X2270Y130D01*
X2272Y130D01*
X2272Y132D01*
X2274Y132D01*
X2274Y134D01*
X2276Y134D01*
X2276Y136D01*
X2280Y136D01*
X2280Y138D01*
X2282Y138D01*
X2282Y140D01*
X2286Y140D01*
X2286Y142D01*
X2292Y142D01*
X2292Y144D01*
X2298Y144D01*
X2298Y146D01*
X1828Y146D01*
G37*
D02*
G36*
X2316Y146D02*
X2316Y144D01*
X2322Y144D01*
X2322Y142D01*
X2328Y142D01*
X2328Y140D01*
X2330Y140D01*
X2330Y138D01*
X2334Y138D01*
X2334Y136D01*
X2336Y136D01*
X2336Y134D01*
X2340Y134D01*
X2340Y132D01*
X2342Y132D01*
X2342Y128D01*
X2344Y128D01*
X2344Y126D01*
X2346Y126D01*
X2346Y124D01*
X2348Y124D01*
X2348Y120D01*
X2350Y120D01*
X2350Y116D01*
X2352Y116D01*
X2352Y108D01*
X2354Y108D01*
X2354Y88D01*
X2352Y88D01*
X2352Y82D01*
X2350Y82D01*
X2350Y78D01*
X2348Y78D01*
X2348Y74D01*
X2346Y74D01*
X2346Y70D01*
X2344Y70D01*
X2344Y68D01*
X2342Y68D01*
X2342Y66D01*
X2340Y66D01*
X2340Y64D01*
X2338Y64D01*
X2338Y62D01*
X2336Y62D01*
X2336Y42D01*
X2534Y42D01*
X2534Y62D01*
X2532Y62D01*
X2532Y64D01*
X2528Y64D01*
X2528Y68D01*
X2526Y68D01*
X2526Y70D01*
X2524Y70D01*
X2524Y72D01*
X2522Y72D01*
X2522Y76D01*
X2520Y76D01*
X2520Y80D01*
X2518Y80D01*
X2518Y86D01*
X2516Y86D01*
X2516Y110D01*
X2518Y110D01*
X2518Y118D01*
X2520Y118D01*
X2520Y120D01*
X2522Y120D01*
X2522Y124D01*
X2524Y124D01*
X2524Y126D01*
X2526Y126D01*
X2526Y130D01*
X2528Y130D01*
X2528Y132D01*
X2530Y132D01*
X2530Y134D01*
X2532Y134D01*
X2532Y136D01*
X2536Y136D01*
X2536Y138D01*
X2538Y138D01*
X2538Y140D01*
X2542Y140D01*
X2542Y142D01*
X2548Y142D01*
X2548Y144D01*
X2554Y144D01*
X2554Y146D01*
X2316Y146D01*
G37*
D02*
G36*
X3166Y120D02*
X3166Y118D01*
X3178Y118D01*
X3178Y116D01*
X3184Y116D01*
X3184Y114D01*
X3186Y114D01*
X3186Y112D01*
X3190Y112D01*
X3190Y110D01*
X3194Y110D01*
X3194Y108D01*
X3196Y108D01*
X3196Y106D01*
X3198Y106D01*
X3198Y104D01*
X3200Y104D01*
X3200Y102D01*
X3202Y102D01*
X3202Y100D01*
X3204Y100D01*
X3204Y98D01*
X3224Y98D01*
X3224Y100D01*
X3226Y100D01*
X3226Y102D01*
X3228Y102D01*
X3228Y104D01*
X3230Y104D01*
X3230Y106D01*
X3232Y106D01*
X3232Y108D01*
X3234Y108D01*
X3234Y110D01*
X3236Y110D01*
X3236Y112D01*
X3240Y112D01*
X3240Y114D01*
X3244Y114D01*
X3244Y116D01*
X3250Y116D01*
X3250Y118D01*
X3260Y118D01*
X3260Y120D01*
X3166Y120D01*
G37*
D02*
G36*
X64Y108D02*
X64Y106D01*
X72Y106D01*
X72Y104D01*
X76Y104D01*
X76Y102D01*
X80Y102D01*
X80Y100D01*
X82Y100D01*
X82Y98D01*
X84Y98D01*
X84Y96D01*
X88Y96D01*
X88Y94D01*
X90Y94D01*
X90Y90D01*
X92Y90D01*
X92Y88D01*
X94Y88D01*
X94Y86D01*
X114Y86D01*
X114Y90D01*
X116Y90D01*
X116Y92D01*
X118Y92D01*
X118Y94D01*
X120Y94D01*
X120Y96D01*
X122Y96D01*
X122Y98D01*
X126Y98D01*
X126Y100D01*
X128Y100D01*
X128Y102D01*
X132Y102D01*
X132Y104D01*
X136Y104D01*
X136Y106D01*
X142Y106D01*
X142Y108D01*
X64Y108D01*
G37*
D02*
G36*
X164Y108D02*
X164Y106D01*
X172Y106D01*
X172Y104D01*
X176Y104D01*
X176Y102D01*
X180Y102D01*
X180Y100D01*
X182Y100D01*
X182Y98D01*
X184Y98D01*
X184Y96D01*
X188Y96D01*
X188Y94D01*
X190Y94D01*
X190Y90D01*
X192Y90D01*
X192Y88D01*
X194Y88D01*
X194Y86D01*
X214Y86D01*
X214Y90D01*
X216Y90D01*
X216Y92D01*
X218Y92D01*
X218Y94D01*
X220Y94D01*
X220Y96D01*
X222Y96D01*
X222Y98D01*
X226Y98D01*
X226Y100D01*
X228Y100D01*
X228Y102D01*
X232Y102D01*
X232Y104D01*
X236Y104D01*
X236Y106D01*
X242Y106D01*
X242Y108D01*
X164Y108D01*
G37*
D02*
G36*
X264Y108D02*
X264Y106D01*
X272Y106D01*
X272Y104D01*
X276Y104D01*
X276Y102D01*
X280Y102D01*
X280Y100D01*
X282Y100D01*
X282Y98D01*
X284Y98D01*
X284Y96D01*
X288Y96D01*
X288Y94D01*
X290Y94D01*
X290Y90D01*
X292Y90D01*
X292Y88D01*
X294Y88D01*
X294Y86D01*
X314Y86D01*
X314Y90D01*
X316Y90D01*
X316Y92D01*
X318Y92D01*
X318Y94D01*
X320Y94D01*
X320Y96D01*
X322Y96D01*
X322Y98D01*
X326Y98D01*
X326Y100D01*
X328Y100D01*
X328Y102D01*
X332Y102D01*
X332Y104D01*
X336Y104D01*
X336Y106D01*
X342Y106D01*
X342Y108D01*
X264Y108D01*
G37*
D02*
G36*
X1092Y84D02*
X1092Y82D01*
X1090Y82D01*
X1090Y78D01*
X1088Y78D01*
X1088Y76D01*
X1086Y76D01*
X1086Y74D01*
X1084Y74D01*
X1084Y72D01*
X1082Y72D01*
X1082Y70D01*
X1080Y70D01*
X1080Y68D01*
X1076Y68D01*
X1076Y66D01*
X1072Y66D01*
X1072Y64D01*
X1068Y64D01*
X1068Y62D01*
X1062Y62D01*
X1062Y42D01*
X1528Y42D01*
X1528Y62D01*
X1524Y62D01*
X1524Y64D01*
X1520Y64D01*
X1520Y66D01*
X1518Y66D01*
X1518Y68D01*
X1516Y68D01*
X1516Y70D01*
X1514Y70D01*
X1514Y72D01*
X1512Y72D01*
X1512Y74D01*
X1510Y74D01*
X1510Y76D01*
X1508Y76D01*
X1508Y80D01*
X1506Y80D01*
X1506Y82D01*
X1404Y82D01*
X1404Y84D01*
X1092Y84D01*
G37*
D02*
G36*
X2602Y72D02*
X2602Y70D01*
X2600Y70D01*
X2600Y68D01*
X2598Y68D01*
X2598Y66D01*
X2596Y66D01*
X2596Y64D01*
X2594Y64D01*
X2594Y62D01*
X2592Y62D01*
X2592Y42D01*
X2780Y42D01*
X2780Y62D01*
X2752Y62D01*
X2752Y64D01*
X2724Y64D01*
X2724Y66D01*
X2696Y66D01*
X2696Y68D01*
X2666Y68D01*
X2666Y70D01*
X2638Y70D01*
X2638Y72D01*
X2602Y72D01*
G37*
D02*
G04 End of Copper1*
M02*